<svg xmlns="http://www.w3.org/2000/svg" viewBox="0 0 200 160" width="200" height="160">
  <rect width="200" height="160" rx="16" fill="#FFFCF7" stroke="#E4CDB4" stroke-width="2"/>

  <text x="100" y="22" text-anchor="middle" font-family="sans-serif" font-size="9" fill="#3E2815" font-weight="bold">Side-hustle starter</text>

  <!-- Mom + child icon (top) -->
  <g transform="translate(80, 32)">
    <!-- Mom -->
    <circle cx="14" cy="8" r="6" fill="#F1641E"/>
    <path d="M 4 32 Q 4 18 14 18 Q 24 18 24 32" fill="#F1641E"/>
    <!-- Child -->
    <circle cx="30" cy="14" r="4" fill="#E8C04D"/>
    <path d="M 22 32 Q 22 22 30 22 Q 38 22 38 32" fill="#E8C04D"/>
  </g>

  <path d="M 100 68 L 100 76" stroke="#F1641E" stroke-width="2" stroke-dasharray="3 2"/>

  <!-- eRank (FREE) -->
  <g transform="translate(20, 82)">
    <rect x="0" y="0" width="40" height="40" rx="8" fill="#0EA5E9"/>
    <circle cx="17" cy="17" r="8" fill="none" stroke="#FFFCF7" stroke-width="2.5"/>
    <line x1="22" y1="22" x2="28" y2="28" stroke="#FFFCF7" stroke-width="2.5" stroke-linecap="round"/>
    <text x="20" y="58" text-anchor="middle" font-family="sans-serif" font-size="7" fill="#3E2815" font-weight="bold">eRank</text>
    <text x="20" y="68" text-anchor="middle" font-family="sans-serif" font-size="6" fill="#10B981" font-weight="bold">FREE</text>
  </g>

  <!-- EtsyHunt (FREE TRIAL) -->
  <g transform="translate(80, 82)">
    <rect x="0" y="0" width="40" height="40" rx="8" fill="#F97316"/>
    <path d="M 8 28 L 12 12 L 20 24 L 28 12 L 32 28" stroke="#FFFCF7" stroke-width="3" fill="none" stroke-linecap="round" stroke-linejoin="round"/>
    <text x="20" y="58" text-anchor="middle" font-family="sans-serif" font-size="7" fill="#3E2815" font-weight="bold">EtsyHunt</text>
    <text x="20" y="68" text-anchor="middle" font-family="sans-serif" font-size="6" fill="#10B981" font-weight="bold">7-day trial</text>
  </g>

  <!-- Roketfy basic -->
  <g transform="translate(140, 82)">
    <rect x="0" y="0" width="40" height="40" rx="8" fill="#F1641E"/>
    <path d="M 20 12 L 26 22 L 20 18 L 14 22 Z" fill="#FFFCF7"/>
    <circle cx="20" cy="14" r="2" fill="#FFFCF7"/>
    <text x="20" y="58" text-anchor="middle" font-family="sans-serif" font-size="7" fill="#3E2815" font-weight="bold">Roketfy</text>
    <text x="20" y="68" text-anchor="middle" font-family="sans-serif" font-size="6" fill="#A37545" font-weight="bold">$4.99/mo</text>
  </g>

  <text x="100" y="160" text-anchor="middle" font-family="sans-serif" font-size="6" fill="#8B5E36" font-style="italic">start free · add paid at $500/mo revenue</text>
</svg>