<svg xmlns="http://www.w3.org/2000/svg" viewBox="0 0 320 80" width="320" height="80">
  <defs>
    <linearGradient id="hOuter" x1="50%" y1="100%" x2="50%" y2="0%">
      <stop offset="0%" stop-color="#D8500F"/>
      <stop offset="60%" stop-color="#F1641E"/>
      <stop offset="100%" stop-color="#FFA171"/>
    </linearGradient>
    <linearGradient id="hInner" x1="50%" y1="100%" x2="50%" y2="0%">
      <stop offset="0%" stop-color="#FFA171"/>
      <stop offset="100%" stop-color="#FFE5A0"/>
    </linearGradient>
  </defs>

  <!-- Flame icon (left, 64x64) -->
  <g transform="translate(0, 8)">
    <path d="M 32 4
             C 28 12 22 18 20 26
             C 18 32 12 34 12 42
             C 12 52 20 60 32 60
             C 44 60 52 52 52 42
             C 52 34 46 32 44 26
             C 42 18 36 12 32 4 Z"
          fill="url(#hOuter)"/>
    <path d="M 32 22
             C 30 28 26 32 26 38
             C 26 46 30 52 32 52
             C 34 52 38 46 38 38
             C 38 32 34 28 32 22 Z"
          fill="url(#hInner)" opacity="0.85"/>
    <path d="M 44 14
             L 45.5 17.5
             L 49 19
             L 45.5 20.5
             L 44 24
             L 42.5 20.5
             L 39 19
             L 42.5 17.5 Z"
          fill="#FFFCF7"/>
    <circle cx="20" cy="22" r="1.5" fill="#FFFCF7"/>
  </g>

  <!-- Wordmark (right) -->
  <g transform="translate(72, 0)">
    <text x="0" y="42"
          font-family="'Inter', -apple-system, sans-serif"
          font-size="32" font-weight="700"
          fill="#8B5E36" letter-spacing="-0.5">bestaietsy</text>
    <text x="0" y="62"
          font-family="'Inter', sans-serif"
          font-size="11" font-weight="500"
          fill="#A37545" letter-spacing="2">THE AI TOOLKIT FOR ETSY SELLERS</text>
  </g>
</svg>