<svg width="106" height="31" viewBox="0 0 106 31" fill="none" xmlns="http://www.w3.org/2000/svg">
<g filter="url(#filter0_i_11884_807582)">
<path d="M18.5661 12.9292C17.986 13.9675 17.3471 14.9731 16.7682 16.0114C15.9315 17.5112 15.0391 18.9796 14.2057 20.4783C13.4149 21.901 12.6241 23.326 11.8005 24.7292C11.0981 25.9249 10.102 26.8828 8.74099 27.3476C8.00916 27.5973 7.23582 27.6973 6.45921 27.708C5.53731 27.7201 4.61544 27.7102 3.69354 27.7102C2.72469 27.7102 1.75474 27.7244 0.785885 27.706C0.0114556 27.6919 -0.22557 27.5094 0.232097 26.7535C1.20314 25.1495 2.10864 23.5073 3.0775 21.9021C4.01467 20.3513 4.81969 18.7211 5.76343 17.1746C6.69076 15.653 7.55477 14.0967 8.47666 12.573C9.3046 11.2056 10.0747 9.80356 10.8753 8.42102C11.4946 7.35235 12.1271 6.29346 12.742 5.2237C13.061 4.66765 13.3308 4.08553 13.7109 3.56531C13.9938 3.17977 14.1445 3.16782 14.3968 3.57943C14.8796 4.3679 15.3395 5.1705 15.8037 5.96982C16.8108 7.70098 17.784 9.45277 18.8315 11.1589C19.2749 11.8823 18.8698 12.3873 18.5661 12.9292Z" fill="url(#paint0_linear_11884_807582)"/>
<path d="M18.5661 12.9292C17.986 13.9675 17.3471 14.9731 16.7682 16.0114C15.9315 17.5112 15.0391 18.9796 14.2057 20.4783C13.4149 21.901 12.6241 23.326 11.8005 24.7292C11.0981 25.9249 10.102 26.8828 8.74099 27.3476C8.00916 27.5973 7.23582 27.6973 6.45921 27.708C5.53731 27.7201 4.61544 27.7102 3.69354 27.7102C2.72469 27.7102 1.75474 27.7244 0.785885 27.706C0.0114556 27.6919 -0.22557 27.5094 0.232097 26.7535C1.20314 25.1495 2.10864 23.5073 3.0775 21.9021C4.01467 20.3513 4.81969 18.7211 5.76343 17.1746C6.69076 15.653 7.55477 14.0967 8.47666 12.573C9.3046 11.2056 10.0747 9.80356 10.8753 8.42102C11.4946 7.35235 12.1271 6.29346 12.742 5.2237C13.061 4.66765 13.3308 4.08553 13.7109 3.56531C13.9938 3.17977 14.1445 3.16782 14.3968 3.57943C14.8796 4.3679 15.3395 5.1705 15.8037 5.96982C16.8108 7.70098 17.784 9.45277 18.8315 11.1589C19.2749 11.8823 18.8698 12.3873 18.5661 12.9292Z" fill="url(#paint1_linear_11884_807582)" fill-opacity="0.2" style="mix-blend-mode:soft-light"/>
</g>
<g filter="url(#filter1_i_11884_807582)">
<path d="M27.5363 27.4015C26.4187 27.4059 25.3012 27.4025 23.8971 27.4025C22.8619 27.3478 21.538 27.4856 20.2163 27.3283C18.8638 27.1668 17.878 26.4774 17.1875 25.3639C16.3324 23.9854 16.3555 22.5822 17.1678 21.1907C18.0042 19.7573 18.8529 18.3314 19.697 16.9012C19.9891 16.4079 20.303 15.9265 20.5675 15.4193C20.7552 15.0585 20.9562 15.1662 21.0814 15.401C21.5501 16.2776 22.0638 17.1306 22.5667 17.9867C23.0552 18.8203 23.5776 19.6388 24.0717 20.4713C24.9115 21.8843 25.7425 23.3004 26.5812 24.7124C27.0039 25.4264 27.4384 26.1339 27.8623 26.847C28.1115 27.2637 28.0335 27.3993 27.5363 27.4015Z" fill="url(#paint2_linear_11884_807582)"/>
<path d="M27.5363 27.4015C26.4187 27.4059 25.3012 27.4025 23.8971 27.4025C22.8619 27.3478 21.538 27.4856 20.2163 27.3283C18.8638 27.1668 17.878 26.4774 17.1875 25.3639C16.3324 23.9854 16.3555 22.5822 17.1678 21.1907C18.0042 19.7573 18.8529 18.3314 19.697 16.9012C19.9891 16.4079 20.303 15.9265 20.5675 15.4193C20.7552 15.0585 20.9562 15.1662 21.0814 15.401C21.5501 16.2776 22.0638 17.1306 22.5667 17.9867C23.0552 18.8203 23.5776 19.6388 24.0717 20.4713C24.9115 21.8843 25.7425 23.3004 26.5812 24.7124C27.0039 25.4264 27.4384 26.1339 27.8623 26.847C28.1115 27.2637 28.0335 27.3993 27.5363 27.4015Z" fill="url(#paint3_linear_11884_807582)" fill-opacity="0.2" style="mix-blend-mode:soft-light"/>
</g>
<path d="M43.1416 25H38.2285L44.627 6.08398H50.6953L57.0811 25H52.1807L47.7373 10.8447H47.585L43.1416 25ZM42.5068 17.5479H52.7773V21.0264H42.5068V17.5479ZM63.1682 6.08398V25H58.6487V6.08398H63.1682ZM74.7016 18.8809V10.8066H79.2212V25H74.9048V22.3594H74.7524C74.4477 23.2227 73.9188 23.9124 73.1655 24.4287C72.4123 24.9365 71.5024 25.1862 70.436 25.1777C69.4712 25.1777 68.6206 24.9577 67.8843 24.5176C67.1564 24.0775 66.5851 23.4596 66.1704 22.6641C65.7641 21.86 65.561 20.9248 65.561 19.8584V10.8066H70.0805V18.9824C70.0805 19.7441 70.2794 20.3493 70.6772 20.7979C71.0835 21.238 71.6336 21.4538 72.3276 21.4453C72.7762 21.4453 73.1782 21.348 73.5337 21.1533C73.8891 20.9502 74.1727 20.6582 74.3843 20.2773C74.5958 19.8965 74.7016 19.431 74.7016 18.8809ZM81.614 25V10.8066H85.9939V13.4092H86.1462C86.4001 12.4613 86.8191 11.763 87.403 11.3145C87.9955 10.8574 88.6768 10.6289 89.447 10.6289C89.6586 10.6289 89.8744 10.6416 90.0945 10.667C90.323 10.6924 90.5303 10.7347 90.7165 10.7939V14.7041C90.4965 14.6279 90.2129 14.5729 89.8659 14.5391C89.5189 14.4967 89.21 14.4756 88.9392 14.4756C88.406 14.4756 87.9236 14.5941 87.4919 14.8311C87.0687 15.068 86.7344 15.3981 86.489 15.8213C86.252 16.2445 86.1335 16.7354 86.1335 17.2939V25H81.614ZM95.5849 25.2539C94.6793 25.2539 93.8711 25.1016 93.1601 24.7969C92.4576 24.4837 91.9075 24.0182 91.5097 23.4004C91.1119 22.7826 90.913 22.0039 90.913 21.0645C90.913 20.2773 91.0485 19.613 91.3193 19.0713C91.5986 18.5296 91.9795 18.0895 92.4619 17.751C92.9528 17.4124 93.5156 17.1543 94.1504 16.9766C94.7851 16.7904 95.4622 16.6719 96.1816 16.6211C96.9856 16.5449 97.6331 16.4688 98.124 16.3926C98.6149 16.3164 98.9703 16.1979 99.1904 16.0371C99.4189 15.8763 99.5332 15.652 99.5332 15.3643V15.3008C99.5332 14.8353 99.3724 14.4714 99.0507 14.209C98.7291 13.9466 98.289 13.8154 97.7304 13.8154C97.1295 13.8154 96.6471 13.9466 96.2832 14.209C95.9277 14.4714 95.6992 14.8268 95.5976 15.2754L91.4463 15.1357C91.5647 14.2725 91.8779 13.5023 92.3857 12.8252C92.902 12.1396 93.6087 11.6022 94.5058 11.2129C95.4114 10.8236 96.5032 10.6289 97.7812 10.6289C98.6783 10.6289 99.5078 10.7347 100.269 10.9463C101.031 11.1579 101.696 11.4668 102.263 11.873C102.83 12.2793 103.27 12.7744 103.583 13.3584C103.896 13.9424 104.053 14.6068 104.053 15.3516V25H99.7998V23.0068H99.6982C99.4358 23.4977 99.11 23.9082 98.7207 24.2383C98.3313 24.5684 97.8743 24.8223 97.3496 25C96.8333 25.1693 96.2451 25.2539 95.5849 25.2539ZM96.9687 22.2832C97.4511 22.2832 97.887 22.1859 98.2763 21.9912C98.6741 21.7881 98.9873 21.513 99.2158 21.166C99.4528 20.819 99.5713 20.4128 99.5713 19.9473V18.6143C99.4443 18.682 99.2877 18.7454 99.1015 18.8047C98.9238 18.8555 98.7249 18.9062 98.5048 18.957C98.2848 19.0078 98.0605 19.0501 97.832 19.084C97.6119 19.1178 97.4004 19.1517 97.1972 19.1855C96.7656 19.2448 96.3974 19.3506 96.0927 19.5029C95.7965 19.6468 95.5722 19.8288 95.4199 20.0488C95.2675 20.2689 95.1914 20.5355 95.1914 20.8486C95.1914 21.3141 95.3564 21.6696 95.6865 21.915C96.0166 22.1605 96.444 22.2832 96.9687 22.2832Z" fill="#101828"/>
<defs>
<filter id="filter0_i_11884_807582" x="0" y="3.27344" width="19.0276" height="24.442" filterUnits="userSpaceOnUse" color-interpolation-filters="sRGB">
<feFlood flood-opacity="0" result="BackgroundImageFix"/>
<feBlend mode="normal" in="SourceGraphic" in2="BackgroundImageFix" result="shape"/>
<feColorMatrix in="SourceAlpha" type="matrix" values="0 0 0 0 0 0 0 0 0 0 0 0 0 0 0 0 0 0 127 0" result="hardAlpha"/>
<feOffset/>
<feGaussianBlur stdDeviation="0.25"/>
<feComposite in2="hardAlpha" operator="arithmetic" k2="-1" k3="1"/>
<feColorMatrix type="matrix" values="0 0 0 0 0 0 0 0 0 0 0 0 0 0 0 0 0 0 0.5 0"/>
<feBlend mode="normal" in2="shape" result="effect1_innerShadow_11884_807582"/>
</filter>
<filter id="filter1_i_11884_807582" x="16.5524" y="15.1855" width="11.4476" height="12.221" filterUnits="userSpaceOnUse" color-interpolation-filters="sRGB">
<feFlood flood-opacity="0" result="BackgroundImageFix"/>
<feBlend mode="normal" in="SourceGraphic" in2="BackgroundImageFix" result="shape"/>
<feColorMatrix in="SourceAlpha" type="matrix" values="0 0 0 0 0 0 0 0 0 0 0 0 0 0 0 0 0 0 127 0" result="hardAlpha"/>
<feOffset/>
<feGaussianBlur stdDeviation="0.25"/>
<feComposite in2="hardAlpha" operator="arithmetic" k2="-1" k3="1"/>
<feColorMatrix type="matrix" values="0 0 0 0 0 0 0 0 0 0 0 0 0 0 0 0 0 0 0.5 0"/>
<feBlend mode="normal" in2="shape" result="effect1_innerShadow_11884_807582"/>
</filter>
<linearGradient id="paint0_linear_11884_807582" x1="9.51382" y1="3.27344" x2="9.51382" y2="27.7154" gradientUnits="userSpaceOnUse">
<stop stop-color="#155EEF"/>
<stop offset="1" stop-color="#0040C1"/>
</linearGradient>
<linearGradient id="paint1_linear_11884_807582" x1="9.51382" y1="3.27344" x2="9.51382" y2="27.7154" gradientUnits="userSpaceOnUse">
<stop offset="0.328125" stop-color="white"/>
<stop offset="1" stop-opacity="0.1"/>
</linearGradient>
<linearGradient id="paint2_linear_11884_807582" x1="22.2761" y1="15.1855" x2="22.2761" y2="27.4066" gradientUnits="userSpaceOnUse">
<stop stop-color="#155EEF"/>
<stop offset="1" stop-color="#0040C1"/>
</linearGradient>
<linearGradient id="paint3_linear_11884_807582" x1="22.2761" y1="15.1855" x2="22.2761" y2="27.4066" gradientUnits="userSpaceOnUse">
<stop offset="0.328125" stop-color="white"/>
<stop offset="1" stop-opacity="0.1"/>
</linearGradient>
</defs>
</svg>
