<svg width="101" height="57" viewBox="0 0 101 57" fill="none" xmlns="http://www.w3.org/2000/svg">
<path fill-rule="evenodd" clip-rule="evenodd" d="M22.1829 15.6748C14.3579 12.2511 7.85641 15.573 5.81788 20.3874C4.98605 22.3519 4.92074 24.5833 5.92226 26.5351C5.59699 26.9108 5.30238 27.3043 5.03845 27.7133C3.10388 30.7107 2.95061 34.3474 4.24411 37.3162C5.55105 40.3159 8.34783 42.6507 12.2215 42.9485C16.0451 43.2424 20.633 41.5365 25.6515 37.1412L26.8329 36.1065L24.7635 33.7438L23.5822 34.7785C18.9262 38.8564 15.1402 40.0228 12.4622 39.8169C9.83425 39.6149 8.00176 38.0776 7.12347 36.0617C6.23174 34.015 6.3373 31.4927 7.67734 29.4164C7.77337 29.2676 7.87646 29.1201 7.98684 28.9743C9.84538 30.4012 12.5594 31.2174 16.0653 31.2487L16.0913 31.249L16.1173 31.2483C19.2898 31.1716 21.4696 29.1784 21.4896 26.654C21.4992 25.4469 20.9814 24.2736 19.9987 23.4252C19.019 22.5795 17.6667 22.1261 16.0793 22.1261H16.0258L15.9724 22.1298C12.9056 22.3392 10.3958 23.152 8.44441 24.3827C8.21694 23.5197 8.30642 22.5654 8.71008 21.612C9.97683 18.6204 14.4822 15.7338 20.9239 18.5522L22.3626 19.1817L23.6216 16.3043L22.1829 15.6748ZM16.0662 28.1078C13.4321 28.0808 11.6288 27.5534 10.441 26.8461C11.8605 26.0268 13.7283 25.4382 16.1305 25.2672C17.0952 25.2765 17.6541 25.5504 17.9463 25.8027C18.2407 26.0567 18.3511 26.3559 18.3489 26.629C18.3455 27.063 17.9452 28.0538 16.0662 28.1078ZM98.7304 41.8829H95.1493L88.4493 31.2166L84.9067 34.5281V41.8829H81.8262V14.4663H84.9067V30.9085L94.1097 22.0136H98.1913L90.6441 29.1757L98.7304 41.8829ZM70.1961 21.5514C72.4037 21.5514 74.1237 22.1547 75.3559 23.3612C76.5881 24.5678 77.2042 26.2621 77.2042 28.4441V41.8828H74.1237V28.7521C74.1237 25.8 72.6091 24.3239 69.58 24.3239C68.1424 24.3239 66.8717 24.863 65.7678 25.9412C64.664 27.0194 64.1121 28.5853 64.1121 30.639V41.8828H61.0316V22.0135H63.9581V24.9785C65.4726 22.6938 67.552 21.5514 70.1961 21.5514ZM58.3171 39.3799H57.2004C56.4816 39.3799 56.1222 39.059 56.1222 38.4173V27.3274C56.1222 23.4768 53.6322 21.5514 48.652 21.5514C43.5179 21.5514 40.8224 23.7463 40.5657 28.136H43.6462C43.7489 26.6728 44.1725 25.6588 44.9169 25.094C45.6871 24.5036 46.9321 24.2084 48.652 24.2084C50.2693 24.2084 51.4116 24.4523 52.0791 24.94C52.7722 25.4278 53.1188 26.2236 53.1188 27.3274C53.1188 28.919 52.0791 29.8303 49.9998 30.0614L47.1503 30.3694C42.2472 30.8828 39.7956 32.9365 39.7956 36.5304C39.7956 38.3787 40.4117 39.8163 41.6439 40.8432C42.9018 41.8443 44.6217 42.3449 46.8037 42.3449C49.7302 42.3449 51.8866 41.2796 53.2728 39.1489C53.4268 41.0485 54.5435 41.9984 56.6228 41.9984C57.2389 41.9984 57.8037 41.9598 58.3171 41.8828V39.3799ZM51.2705 38.2247C50.0383 39.2259 48.6007 39.7265 46.9578 39.7265C45.6486 39.7265 44.6602 39.4441 43.9928 38.8793C43.3253 38.2889 42.9916 37.4803 42.9916 36.4534C42.9916 35.4009 43.3382 34.5923 44.0313 34.0275C44.7501 33.4628 45.9438 33.0777 47.6124 32.8723L50.5003 32.5258C51.6812 32.3974 52.554 32.115 53.1188 31.6786V34.0275C53.1188 35.8502 52.5027 37.2492 51.2705 38.2247ZM38.3864 21.7055C38.8998 21.7055 39.2464 21.7183 39.4261 21.744V24.709H38.656C36.6023 24.709 34.9979 25.2224 33.8427 26.2492C32.7132 27.2504 32.1484 28.688 32.1484 30.562V41.8829H29.0679V22.0135H31.9944V25.5176C33.3293 22.9762 35.4599 21.7055 38.3864 21.7055Z" fill="black"/>
</svg>
