<svg height="72" viewBox="0 0 259 72" width="259" xmlns="http://www.w3.org/2000/svg" xmlns:xlink="http://www.w3.org/1999/xlink"><linearGradient id="a" x1="49.976359%" x2="49.976359%" y1="100%" y2="0%"><stop offset="0" stop-color="#ffad00"/><stop offset="1" stop-color="#ff6000"/></linearGradient><radialGradient id="b" cx="78.492188%" cy="5.196238%" gradientTransform="matrix(-.61694753 .75801824 -.71700945 -.65223336 1.306427 -.509052)" r="104.115752%"><stop offset="0" stop-color="#ffc653"/><stop offset=".148000437" stop-color="#ff814a"/><stop offset=".293105332" stop-color="#ff6a58"/><stop offset=".43711757" stop-color="#fd5560"/><stop offset=".601207386" stop-color="#e85272"/><stop offset=".802365603" stop-color="#c56595"/><stop offset="1" stop-color="#af76af"/></radialGradient><linearGradient id="c" x1="50%" x2="50%" y1="61.606979%" y2="96.878915%"><stop offset="0" stop-color="#ff6000" stop-opacity="0"/><stop offset=".999699519" stop-color="#4d67df" stop-opacity=".6"/></linearGradient><linearGradient id="d" x1="97.531319%" x2="3.824133%" y1="31.553928%" y2="75.204607%"><stop offset="0" stop-color="#ffd03a"/><stop offset=".368881119" stop-color="#ffc82e"/><stop offset="1" stop-color="#ff734f"/></linearGradient><mask id="e" fill="#fff"><circle cx="36" cy="36" fill="#fff" fill-rule="evenodd" r="36"/></mask><mask id="f" fill="#fff"><circle cx="36" cy="36" fill="#fff" fill-rule="evenodd" r="36"/></mask><mask id="g" fill="#fff"><circle cx="36" cy="36" fill="#fff" fill-rule="evenodd" r="36"/></mask><g fill="none" fill-rule="evenodd"><circle cx="36" cy="36" fill="url(#a)" fill-rule="nonzero" r="36"/><g mask="url(#e)"><g fill-rule="nonzero" transform="translate(0 4)"><path d="m0 40 6 16 12 10 16 4 16-2 16-12 8-18-2-16-8-16-6-6c-8.6110505 9.316048-16.6110505 16.6493814-24 22s-18.7222829 11.3506186-34 18z" fill="url(#b)"/><path d="m0 40 6 16 12 10 16 4 16-2 16-12 8-18-2-16-8-16-6-6c-8.6110505 9.316048-16.6110505 16.6493814-24 22s-18.7222829 11.3506186-34 18z" fill="url(#c)"/></g></g><g mask="url(#f)"><g transform="translate(-2 -2)"><path d="m2 48c22.6666667-6.6666667 42.6666667-20 60-40 0 0-5.3087677-3.10292257-14-6-2.0674174-.68913914-5.4007507-1.3558058-10-2-12.5624346 2.45705013-21.2291013 5.79038346-26 10-4.77089874 4.2096165-8.10423207 9.5429499-10 16l-2 12z" fill="#000" fill-rule="nonzero"/><path d="m2 48c22.6666667-6.6666667 42.6666667-20 60-40 0 0-5.3087677-3.10292257-14-6-2.0674174-.68913914-5.4007507-1.3558058-10-2-12.5624346 2.45705013-21.2291013 5.79038346-26 10-4.77089874 4.2096165-8.10423207 9.5429499-10 16l-2 12z" fill="url(#d)"/></g></g><g mask="url(#g)"><g fill="#fff" fill-rule="nonzero" transform="translate(16.255 12.1531)"><path d="m29.9561686 17.5948096-10.3850933 15.3897866-15.74428848 6.0151882c-1.46463892.559573-3.09721004-.1964662-3.64644964-1.688661-.28203042-.7662308-.23146822-1.6184286.13910088-2.344469l8.86654412-17.3718448 7.85180872-15.99906532c.6995472-1.42541696 2.4008323-2.00318134 3.7999267-1.29047286.5481272.27921988.9925786.73203308 1.2666422 1.29047286z"/><path d="m39.1422188 17.5948096-10.3850932 15.3897866-15.7442885 6.0151882c-1.464639.559573-3.09721008-.1964662-3.6464497-1.688661-.28203044-.7662308-.23146826-1.6184286.13910086-2.344469l8.86654414-17.3718448 7.8518086-15.99906532c.6995474-1.42541696 2.4008324-2.00318134 3.7999268-1.29047286.5481272.27921988.9925786.73203308 1.2666422 1.29047286z" transform="matrix(-1 0 0 1 48.3282 0)"/><path d="m22.1043598 1.59574428 7.8518088 15.99906532-10.3850933 15.3897866-10.38509312-15.3897866 7.85180872-15.99906532c.6995472-1.42541696 2.4008323-2.00318134 3.7999267-1.29047286.5481272.27921988.9925786.73203308 1.2666422 1.29047286z"/><path d="m18.7615168 46.9997336-3.997137-6.7872318c-.2682641-.4555188-.1232834-1.0463522.3238234-1.3196634.1467276-.089693.3146228-.1370722.4857351-.1370722h7.9942741c.5214116 0 .9440994.4306402.9440994.9618618 0 .1743314-.0465044.3453856-.134541.4948738l-3.997137 6.7872318c-.268264.4555188-.8481868.6032272-1.2952936.3299158-.1328816-.081229-.2440945-.1945342-.3238234-.3299158z"/></g></g><g fill="#fff" fill-rule="nonzero" transform="translate(90.0309 16.7143)"><path d="m26.3828571 34.7142857-7.5445714-13.6542857c4.3508572-1.3885714 6.4337143-4.9062857 6.4337143-9.2571429 0-5.73942853-3.564-9.95142853-10.8308571-9.95142853h-14.4411429v32.86285713h5.60057143v-12.96h7.54457147l6.6651428 12.96zm-6.7577142-22.9114286c0 2.8234286-1.6662858 4.7674286-5.1377143 4.7674286h-8.88685717v-9.53485713h8.88685717c3.4714285 0 5.1377143 1.944 5.1377143 4.76742853z"/><path d="m42.1952143 35.2697143c7.6834286 0 12.4971428-5.7857143 12.4971428-12.5434286s-4.8137142-12.5897143-12.4971428-12.5897143c-7.6371429 0-12.4508572 5.832-12.4508572 12.5897143s4.8137143 12.5434286 12.4508572 12.5434286zm-6.9428572-12.5434286c0-4.6748571 2.9622858-7.7297143 6.9428572-7.7297143 4.0268571 0 6.9891428 3.0548572 6.9891428 7.7297143 0 4.6285714-2.9622857 7.6834286-6.9891428 7.6834286-3.9805714 0-6.9428572-3.0548572-6.9428572-7.6834286z"/><path d="m76.2441429 10.692-10.2291429 11.7102857v-22.4022857h-5.508v34.7142857h5.508v-5.7394286l4.212-4.536 7.0817143 10.2754286h6.5725714l-9.9977143-13.8857143 9.3034286-10.1365714z"/><path d="m103.211357 26.8457143c-1.018286 2.4068571-3.193714 3.7028571-5.8319999 3.7028571-3.8417142 0-6.2948571-2.4531428-6.7114285-6.2485714h18.2828574s.046285-.8331429.046285-1.7125714c0-7.0354286-4.674857-12.4508572-11.8028567-12.4508572-7.128 0-11.9417143 5.5542857-11.9417143 12.5434286 0 7.1742857 4.7211429 12.5897143 11.988 12.5897143 5.230286 0 9.210857-2.8234286 10.923429-7.128zm-6.0171427-12.2194286c3.5639997 0 5.8782857 2.268 6.3411427 5.6005714h-12.774857c.5554286-3.2862857 2.8697143-5.6005714 6.4337143-5.6005714z"/><path d="m125.55 29.808s-.786857.2314286-1.712571.2314286c-1.897715 0-2.684572-.9257143-2.684572-2.8234286v-12.1268571h4.489714v-4.3971429h-4.489714v-6.24857143h-5.508v6.24857143h-3.656571v4.3971429h3.656571v12.6822857c0 4.536 2.129143 7.0817143 7.035429 7.0817143 1.851428 0 2.869714-.2777143 2.869714-.2777143z"/><path d="m131.734929 10.692h-3.841715v4.3971429h3.841715v19.6251428h5.508v-19.6251428h4.258285v-4.3971429h-4.258285v-2.22171429c0-2.63828571.879428-3.564 3.101142-3.564.740572 0 1.018286.09257143 1.018286.09257143v-4.86s-.786857-.13885714-1.851428-.13885714c-4.582286 0-7.776 2.49942857-7.776 8.14628571z"/><path d="m152.916429 34.4828571-.555429 1.3422858c-1.388571 3.4714285-3.054857 4.0731428-4.906286 4.0731428-.740571 0-1.388571-.0462857-1.388571-.0462857v4.9062857s.648.0925714 1.573714.0925714c4.397143 0 7.266857-1.944 9.72-8.0074285l10.645714-26.1514286h-5.739428l-6.618857 17.4034286-6.526286-17.4034286h-5.878286z"/></g></g></svg>