<svg width="117" height="22" viewBox="0 0 117 22" fill="none" xmlns="http://www.w3.org/2000/svg">
<g clip-path="url(#clip0_2331_11922)">
<path fill-rule="evenodd" clip-rule="evenodd" d="M64.3438 7.26471C65.6086 7.26471 66.6011 7.65903 67.3245 8.44893C68.0486 9.23757 68.4349 10.3631 68.4872 11.8237C68.4982 11.9656 68.504 12.1567 68.5056 12.3975L68.5061 12.548C68.5061 12.8609 68.5004 13.1088 68.4872 13.2912C68.4349 14.7013 68.0435 15.8098 67.3151 16.6186C66.5847 17.4274 65.5934 17.8318 64.3438 17.8318C63.079 17.8318 62.1338 17.4009 61.5093 16.5404V20.8646C61.5093 21.0085 61.4633 21.1258 61.3719 21.2167C61.2812 21.3088 61.164 21.3542 61.0203 21.3542H58.499C58.3565 21.3542 58.2349 21.3088 58.1379 21.2167C58.0396 21.1258 57.9904 21.0085 57.9904 20.8646V7.94925C57.9904 7.80604 58.0396 7.68806 58.1379 7.59784C58.2349 7.50572 58.3565 7.45967 58.499 7.45967H60.8249C60.968 7.45967 61.0858 7.50572 61.1759 7.59784C61.2686 7.68806 61.3133 7.80604 61.3133 7.94925V8.65398C62.0178 7.72717 63.0267 7.26471 64.3438 7.26471ZM26.62 3.74215C27.7675 3.74215 28.76 3.94088 29.6013 4.33899C30.4413 4.73709 31.0873 5.23236 31.5353 5.82542C31.9859 6.41973 32.2228 7.00333 32.2499 7.57746C32.2499 7.69481 32.2096 7.79575 32.1321 7.88092C32.0539 7.9661 31.9569 8.00837 31.8397 8.00837H29.1022C28.8161 8.00837 28.5943 7.89039 28.4386 7.65569C28.3605 7.38187 28.157 7.15033 27.8324 6.96106C27.5066 6.77178 27.1027 6.67715 26.62 6.67715C26.073 6.67715 25.6501 6.77494 25.3495 6.97052C25.0502 7.16673 24.9009 7.45317 24.9009 7.83171C24.9009 8.21089 25.0949 8.50679 25.4869 8.72256C25.8776 8.9377 26.608 9.15663 27.6749 9.37808C28.8999 9.60016 29.8748 9.87713 30.597 10.2096C31.321 10.5421 31.8554 10.973 32.2008 11.5011C32.5461 12.0298 32.7194 12.6979 32.7194 13.5068C32.7194 14.3945 32.4648 15.1642 31.9569 15.8159C31.4483 16.4689 30.7451 16.9679 29.8452 17.313C28.9459 17.6588 27.9169 17.8317 26.7573 17.8317C25.4926 17.8317 24.4175 17.6487 23.5315 17.284C22.6455 16.9187 21.9737 16.4361 21.5194 15.8355C21.0625 15.2361 20.8205 14.5831 20.7953 13.879C20.7953 13.7616 20.8388 13.6639 20.9226 13.5856C21.007 13.5068 21.1085 13.4676 21.2251 13.4676H23.8258C23.9814 13.4676 24.1087 13.4935 24.2058 13.5465C24.3047 13.5982 24.4112 13.6897 24.5284 13.8203C24.6973 14.1333 24.962 14.3913 25.3212 14.5926C25.6785 14.7963 26.1574 14.896 26.7573 14.896C27.46 14.896 28.0013 14.7888 28.3794 14.5736C28.7569 14.3585 28.9459 14.062 28.9459 13.6834C28.9459 13.409 28.8489 13.1844 28.6535 13.0083C28.4575 12.8317 28.1443 12.6752 27.7152 12.5389C27.2854 12.4014 26.6653 12.2487 25.8581 12.0784C24.2801 11.7654 23.1017 11.2891 22.3209 10.6494C21.5383 10.0109 21.1469 9.09732 21.1469 7.91058C21.1469 7.10112 21.3725 6.38062 21.8212 5.74781C22.2718 5.11564 22.9095 4.6229 23.7363 4.27085C24.5656 3.91754 25.526 3.74215 26.62 3.74215ZM99.9179 7.26471C101.039 7.26471 101.987 7.48932 102.762 7.93979C103.538 8.38963 104.117 9.00918 104.502 9.79845C104.885 10.5884 105.078 11.4849 105.078 12.4899V12.9782C105.078 13.1221 105.03 13.2426 104.932 13.341C104.835 13.4382 104.714 13.4874 104.57 13.4874H98.3746V13.6047C98.3872 14.1921 98.5246 14.6653 98.7855 15.0237C99.0445 15.3826 99.4169 15.5618 99.8984 15.5618C100.212 15.5618 100.462 15.5 100.651 15.3751C100.84 15.2521 101.02 15.0918 101.188 14.8956C101.306 14.7662 101.4 14.6849 101.471 14.6521C101.544 14.6192 101.658 14.6035 101.813 14.6035H104.375C104.492 14.6035 104.593 14.6388 104.678 14.7107C104.763 14.7827 104.804 14.8703 104.804 14.9745C104.804 15.3145 104.612 15.7114 104.228 16.1688C103.843 16.6249 103.283 17.0167 102.547 17.3423C101.81 17.6684 100.941 17.8318 99.9387 17.8318C98.3475 17.8318 97.0973 17.4041 96.1842 16.5505C95.2723 15.6956 94.8035 14.4533 94.7783 12.8218V12.2148C94.8287 10.6634 95.3107 9.44956 96.2239 8.57512C97.1357 7.70194 98.3671 7.26471 99.9179 7.26471ZM116.492 3.74221C116.636 3.74221 116.757 3.78827 116.853 3.87912C116.951 3.9706 117 4.08732 117 4.23054V17.1472C117 17.291 116.951 17.4084 116.853 17.4992C116.757 17.5907 116.636 17.6361 116.492 17.6361H114.165C114.035 17.6361 113.922 17.5876 113.823 17.4898C113.727 17.392 113.676 17.2778 113.676 17.1472V16.5402C112.974 17.4008 111.964 17.8317 110.648 17.8317C109.384 17.8317 108.39 17.4336 107.667 16.638C106.944 15.8425 106.556 14.7074 106.505 13.233L106.484 12.5478L106.505 11.8444C106.556 10.4217 106.947 9.30306 107.677 8.48792C108.405 7.67279 109.396 7.26459 110.648 7.26459C111.821 7.26459 112.765 7.64314 113.481 8.39897V4.23054C113.481 4.08732 113.531 3.9706 113.627 3.87912C113.727 3.78827 113.841 3.74221 113.971 3.74221H116.492ZM37.3128 7.45954C37.4559 7.45954 37.5775 7.5056 37.6739 7.59771C37.771 7.68793 37.8208 7.80591 37.8208 7.94913V17.1472C37.8208 17.291 37.771 17.4084 37.6739 17.4992C37.5775 17.5907 37.4559 17.6355 37.3128 17.6355H34.8697C34.7392 17.6355 34.6245 17.5876 34.5275 17.4898C34.4292 17.392 34.38 17.2778 34.38 17.1472V7.94913C34.38 7.80591 34.4292 7.68793 34.5275 7.59771C34.6245 7.5056 34.7392 7.45954 34.8697 7.45954H37.3128ZM52.2449 7.26459C53.3137 7.26459 54.1839 7.6261 54.8551 8.35102C55.5249 9.07467 55.8602 10.1542 55.8602 11.5889V17.1472C55.8602 17.2778 55.8161 17.392 55.7241 17.4898C55.6327 17.5876 55.5155 17.6355 55.3724 17.6355H52.9689C52.8253 17.6355 52.7049 17.5907 52.606 17.4992C52.5089 17.4084 52.4598 17.291 52.4598 17.1472V11.7258C52.4598 11.1264 52.3325 10.686 52.0791 10.4053C51.8246 10.1251 51.483 9.98445 51.0532 9.98445C50.6493 9.98445 50.3197 10.1251 50.0657 10.4053C49.8112 10.686 49.6839 11.1264 49.6839 11.7258V17.1472C49.6839 17.2778 49.6391 17.392 49.5471 17.4898C49.4564 17.5876 49.3385 17.6355 49.1955 17.6355H46.792C46.649 17.6355 46.528 17.5907 46.4297 17.4992C46.332 17.4084 46.2828 17.291 46.2828 17.1472V11.7258C46.2828 11.1264 46.1524 10.686 45.8934 10.4053C45.6325 10.1251 45.2935 9.98445 44.8769 9.98445C44.473 9.98445 44.1402 10.1251 43.8794 10.4053C43.6191 10.686 43.4887 11.1195 43.4887 11.7062V17.1472C43.4887 17.2778 43.442 17.392 43.3513 17.4898C43.2605 17.5876 43.1433 17.6355 42.9996 17.6355H40.5376C40.4071 17.6355 40.2924 17.5876 40.1954 17.4898C40.0971 17.392 40.0479 17.2778 40.0479 17.1472V7.94913C40.0479 7.80591 40.0971 7.68793 40.1954 7.59771C40.2924 7.5056 40.4071 7.45954 40.5376 7.45954H42.8043C42.9473 7.45954 43.0652 7.5056 43.1553 7.59771C43.2467 7.68793 43.2927 7.80591 43.2927 7.94913V8.61411C43.6059 8.23619 44.0098 7.91695 44.5045 7.65575C44.9992 7.39519 45.5613 7.26459 46.1858 7.26459C47.6188 7.26459 48.6025 7.82547 49.1362 8.94723C49.4501 8.45196 49.8861 8.04755 50.4476 7.73462C51.0072 7.42105 51.6065 7.26459 52.2449 7.26459ZM73.3358 3.74202C73.4789 3.74202 73.5961 3.78808 73.6875 3.87893C73.7776 3.97041 73.8242 4.08776 73.8242 4.23098V17.147C73.8242 17.2776 73.7776 17.3918 73.6875 17.4896C73.5961 17.588 73.4789 17.6359 73.3358 17.6359H70.892C70.7496 17.6359 70.628 17.5912 70.5316 17.499C70.4326 17.4082 70.3835 17.2908 70.3835 17.147V4.23098C70.3835 4.08776 70.4326 3.97041 70.5316 3.87893C70.628 3.78808 70.7496 3.74202 70.892 3.74202H73.3358ZM78.9842 7.45954C79.1272 7.45954 79.2482 7.5056 79.3453 7.59771C79.4423 7.68793 79.4921 7.80591 79.4921 7.94913V17.1472C79.4921 17.291 79.4423 17.4084 79.3453 17.4992C79.2482 17.5907 79.1272 17.6355 78.9842 17.6355H76.541C76.4106 17.6355 76.2959 17.5876 76.1988 17.4898C76.1005 17.392 76.0514 17.2778 76.0514 17.1472V7.94913C76.0514 7.80591 76.1005 7.68793 76.1988 7.59771C76.2959 7.5056 76.4106 7.45954 76.541 7.45954H78.9842ZM92.4531 3.15527C92.5955 3.15527 92.7121 3.20007 92.8041 3.29218C92.8949 3.38366 92.9409 3.50101 92.9409 3.64423V5.3275C92.9409 5.4581 92.8949 5.57166 92.8041 5.66945C92.7121 5.76788 92.5955 5.81583 92.4531 5.81583H87.4294C87.0109 5.81583 86.7148 5.91109 86.5383 6.09974C86.3631 6.28901 86.2762 6.57986 86.2762 6.97102V7.45935H92.4531C92.5955 7.45935 92.7121 7.50604 92.8041 7.59752C92.8949 7.68837 92.9409 7.80635 92.9409 7.94957V17.147C92.9409 17.2776 92.8949 17.3918 92.8041 17.4896C92.7121 17.588 92.5955 17.6359 92.4531 17.6359H90.066C89.9236 17.6359 89.8039 17.5912 89.7056 17.499C89.6085 17.4082 89.5594 17.2908 89.5594 17.147V10.1218H86.2762V17.147C86.2762 17.2776 86.2302 17.3918 86.1394 17.4896C86.0468 17.588 85.9289 17.6359 85.7859 17.6359H83.4013C83.2583 17.6359 83.1373 17.5912 83.0402 17.499C82.9419 17.4082 82.8947 17.2908 82.8947 17.147V10.1218H81.427C81.2846 10.1218 81.1629 10.0764 81.0665 9.98489C80.9676 9.89277 80.9203 9.77606 80.9203 9.63221V7.94957C80.9203 7.80635 80.9676 7.68837 81.0665 7.59752C81.1629 7.50604 81.2846 7.45935 81.427 7.45935H82.8947V6.8726C82.8947 5.56851 83.2709 4.62277 84.0264 4.03603C84.7827 3.44802 85.8634 3.15527 87.2718 3.15527H92.4531ZM111.781 9.98508C111.195 9.98508 110.774 10.1573 110.521 10.5031C110.267 10.8488 110.12 11.3277 110.08 11.9409L110.061 12.5478L110.08 13.1548C110.12 13.768 110.267 14.2475 110.521 14.5926C110.774 14.939 111.195 15.1125 111.781 15.1125C112.34 15.1125 112.759 14.9327 113.033 14.5737C113.307 14.2147 113.456 13.7617 113.481 13.2141C113.508 12.8482 113.521 12.6002 113.521 12.4696C113.521 12.3264 113.508 12.0854 113.481 11.7466C113.456 11.2374 113.303 10.816 113.023 10.4835C112.742 10.151 112.328 9.98508 111.781 9.98508ZM63.2095 9.98457C62.6493 9.98457 62.2327 10.1638 61.9592 10.5227C61.6857 10.8811 61.5364 11.3354 61.5093 11.883C61.4983 12.0244 61.4925 12.2197 61.4909 12.47L61.4904 12.6268C61.4904 12.9398 61.4961 13.1814 61.5093 13.3505C61.5364 13.8596 61.6889 14.2798 61.9687 14.6123C62.2491 14.9454 62.6625 15.112 63.2095 15.112C63.7968 15.112 64.2165 14.9391 64.4711 14.5927C64.725 14.2476 64.8719 13.7675 64.9097 13.1549C64.9229 13.0249 64.9305 12.8218 64.9305 12.548C64.9305 12.2735 64.9229 12.0716 64.9097 11.941C64.8719 11.3278 64.725 10.8483 64.4711 10.5032C64.2165 10.1574 63.7968 9.98457 63.2095 9.98457ZM99.9179 9.47606C99.4226 9.47606 99.0414 9.64893 98.7754 9.99404C98.5082 10.3398 98.3746 10.8262 98.3746 11.4521V11.4912H101.481V11.4521C101.481 10.8262 101.345 10.3398 101.071 9.99404C100.797 9.64893 100.414 9.47606 99.9179 9.47606ZM37.3128 3.21351C37.4559 3.21351 37.5775 3.26272 37.6739 3.36051C37.771 3.4583 37.8208 3.5788 37.8208 3.72202V5.5422C37.8208 5.68668 37.771 5.80655 37.6739 5.90434C37.5775 6.00213 37.4559 6.05135 37.3128 6.05135H34.8697C34.7247 6.05135 34.6088 6.00213 34.5161 5.90434C34.426 5.80655 34.38 5.68668 34.38 5.5422V3.72202C34.38 3.5788 34.4292 3.4583 34.5275 3.36051C34.6245 3.26272 34.7392 3.21351 34.8697 3.21351H37.3128ZM78.9842 3.21351C79.1272 3.21351 79.2482 3.26272 79.3453 3.36051C79.4423 3.4583 79.4921 3.5788 79.4921 3.72202V5.5422C79.4921 5.68668 79.4423 5.80655 79.3453 5.90434C79.2482 6.00213 79.1272 6.05135 78.9842 6.05135H76.541C76.3961 6.05135 76.2801 6.00213 76.1875 5.90434C76.0974 5.80655 76.0514 5.68668 76.0514 5.5422V3.72202C76.0514 3.5788 76.1005 3.4583 76.1988 3.36051C76.2959 3.26272 76.4106 3.21351 76.541 3.21351H78.9842Z" fill="#43464E"/>
<path fill-rule="evenodd" clip-rule="evenodd" d="M16.9324 7.87737V15.0149L16.4869 15.4609L12.922 19.0306L10.6943 21.2609C9.70937 22.2464 8.11377 22.2464 7.12945 21.2609C6.14512 20.2754 6.14512 18.6773 7.12945 17.6918L9.3571 15.4609L12.922 11.8925L13.3675 11.4464L16.9324 7.87737ZM16.0415 6.98507L12.4766 10.5541L12.031 11.0002L8.46617 14.5693L8.02063 15.0153H0.890874L4.90129 11.0002L8.46617 7.43112L8.9117 6.98507H16.0415ZM6.23807 0.739112C7.2224 -0.246371 8.81862 -0.246371 9.80295 0.739112C10.7873 1.7246 10.7873 3.32269 9.80295 4.30818L3.56425 10.5542L0 14.1226V6.98513L0.445531 6.53845L4.00978 2.97001L6.23807 0.739112Z" fill="#FFAD00"/>
</g>
<defs>
<clipPath id="clip0_2331_11922">
<rect width="117" height="22" fill="white"/>
</clipPath>
</defs>
</svg>
